<svg width="306" height="176" viewBox="0 0 306 176" fill="none" xmlns="http://www.w3.org/2000/svg">
<path d="M78.6647 4.144V14H76.9567V7.224H74.5207V6.048C76.2194 6.048 77.1714 5.41333 77.3767 4.144H78.6647ZM81.782 11.564H83.322C83.3593 11.9653 83.5133 12.292 83.784 12.544C84.0547 12.796 84.414 12.922 84.862 12.922C86.0473 12.922 86.6913 11.7787 86.794 9.492C86.262 10.3227 85.534 10.738 84.61 10.738C83.7327 10.738 83.0093 10.4393 82.44 9.842C81.8707 9.23533 81.586 8.46067 81.586 7.518C81.586 6.51933 81.8987 5.698 82.524 5.054C83.1493 4.40067 83.9473 4.074 84.918 4.074C85.45 4.074 85.9213 4.172 86.332 4.368C86.752 4.564 87.088 4.82067 87.34 5.138C87.592 5.446 87.7973 5.81933 87.956 6.258C88.124 6.68733 88.236 7.11667 88.292 7.546C88.3573 7.97533 88.39 8.428 88.39 8.904C88.39 9.548 88.3293 10.164 88.208 10.752C88.096 11.3307 87.9093 11.8907 87.648 12.432C87.396 12.964 87.0227 13.3933 86.528 13.72C86.0333 14.0373 85.45 14.196 84.778 14.196C83.9473 14.196 83.2473 13.9487 82.678 13.454C82.118 12.9593 81.8193 12.3293 81.782 11.564ZM84.862 5.418C84.358 5.418 83.952 5.60933 83.644 5.992C83.3453 6.36533 83.196 6.86 83.196 7.476C83.196 8.08267 83.35 8.56333 83.658 8.918C83.966 9.27267 84.3767 9.45 84.89 9.45C85.4033 9.45 85.8187 9.268 86.136 8.904C86.4533 8.54 86.612 8.064 86.612 7.476C86.612 6.85067 86.4533 6.35133 86.136 5.978C85.8187 5.60467 85.394 5.418 84.862 5.418ZM94.2233 4.144V14H92.5153V7.224H90.0793V6.048C91.778 6.048 92.73 5.41333 92.9353 4.144H94.2233ZM102.003 4.144V14H100.295V7.224H97.8586V6.048C99.5573 6.048 100.509 5.41333 100.715 4.144H102.003ZM106.744 8.722C106.305 8.56333 105.96 8.30667 105.708 7.952C105.465 7.588 105.344 7.16333 105.344 6.678C105.344 5.91267 105.629 5.28733 106.198 4.802C106.777 4.31667 107.523 4.074 108.438 4.074C109.315 4.074 110.034 4.31667 110.594 4.802C111.154 5.278 111.434 5.88933 111.434 6.636C111.434 7.63467 110.972 8.33 110.048 8.722C110.645 8.92733 111.093 9.21667 111.392 9.59C111.691 9.96333 111.84 10.4627 111.84 11.088C111.84 12.012 111.523 12.7587 110.888 13.328C110.253 13.888 109.418 14.168 108.382 14.168C107.355 14.168 106.525 13.8927 105.89 13.342C105.265 12.7913 104.952 12.068 104.952 11.172C104.952 10.5653 105.106 10.052 105.414 9.632C105.731 9.20267 106.175 8.89933 106.744 8.722ZM108.424 5.362C107.939 5.362 107.551 5.49267 107.262 5.754C106.982 6.006 106.842 6.34667 106.842 6.776C106.842 7.20533 106.987 7.55067 107.276 7.812C107.565 8.07333 107.943 8.204 108.41 8.204C108.877 8.204 109.25 8.078 109.53 7.826C109.81 7.56467 109.95 7.21467 109.95 6.776C109.95 6.34667 109.81 6.006 109.53 5.754C109.259 5.49267 108.891 5.362 108.424 5.362ZM108.382 9.352C107.841 9.352 107.402 9.51533 107.066 9.842C106.73 10.1593 106.562 10.5747 106.562 11.088C106.562 11.648 106.73 12.0913 107.066 12.418C107.402 12.7447 107.859 12.908 108.438 12.908C108.998 12.908 109.437 12.754 109.754 12.446C110.071 12.1287 110.23 11.69 110.23 11.13C110.23 10.5887 110.062 10.1593 109.726 9.842C109.39 9.51533 108.942 9.352 108.382 9.352ZM119.381 6.692H117.841C117.673 5.796 117.179 5.348 116.357 5.348C116.124 5.348 115.909 5.39467 115.713 5.488C115.517 5.58133 115.354 5.68867 115.223 5.81C115.093 5.93133 114.976 6.10867 114.873 6.342C114.771 6.566 114.691 6.75733 114.635 6.916C114.589 7.06533 114.537 7.28467 114.481 7.574C114.435 7.86333 114.407 8.064 114.397 8.176C114.388 8.288 114.369 8.47467 114.341 8.736C114.883 7.93333 115.629 7.532 116.581 7.532C117.487 7.532 118.215 7.83067 118.765 8.428C119.325 9.02533 119.605 9.80467 119.605 10.766C119.605 11.7647 119.293 12.586 118.667 13.23C118.051 13.874 117.263 14.196 116.301 14.196C115.172 14.196 114.304 13.7713 113.697 12.922C113.091 12.0727 112.787 10.8593 112.787 9.282C112.787 7.64867 113.109 6.37467 113.753 5.46C114.397 4.54533 115.289 4.088 116.427 4.088C117.258 4.088 117.935 4.31667 118.457 4.774C118.98 5.23133 119.288 5.87067 119.381 6.692ZM116.259 8.806C115.737 8.806 115.321 8.988 115.013 9.352C114.705 9.70667 114.551 10.1827 114.551 10.78C114.551 11.4053 114.71 11.9093 115.027 12.292C115.354 12.6747 115.779 12.866 116.301 12.866C116.815 12.866 117.225 12.6793 117.533 12.306C117.851 11.9327 118.009 11.438 118.009 10.822C118.009 10.2153 117.851 9.73 117.533 9.366C117.216 8.99267 116.791 8.806 116.259 8.806ZM122.961 12.11V13.538C122.961 14.266 122.821 14.8493 122.541 15.288C122.261 15.736 121.766 16.0393 121.057 16.198V15.358C121.635 15.1807 121.939 14.728 121.967 14H121.057V12.11H122.961ZM137.445 10.206C137.352 11.4287 136.913 12.4087 136.129 13.146C135.355 13.874 134.347 14.238 133.105 14.238C131.696 14.238 130.567 13.762 129.717 12.81C128.868 11.858 128.443 10.5933 128.443 9.016C128.443 8.064 128.625 7.20067 128.989 6.426C129.353 5.642 129.899 5.012 130.627 4.536C131.355 4.05067 132.209 3.808 133.189 3.808C134.244 3.808 135.163 4.102 135.947 4.69C136.731 5.26867 137.203 6.10867 137.361 7.21H135.625C135.504 6.61267 135.224 6.146 134.785 5.81C134.347 5.46467 133.805 5.292 133.161 5.292C132.499 5.292 131.934 5.47867 131.467 5.852C131.01 6.22533 130.683 6.68733 130.487 7.238C130.301 7.77933 130.207 8.372 130.207 9.016C130.207 9.50133 130.263 9.95867 130.375 10.388C130.487 10.8173 130.655 11.214 130.879 11.578C131.103 11.9327 131.407 12.2173 131.789 12.432C132.181 12.6467 132.634 12.754 133.147 12.754C134.631 12.754 135.481 11.9047 135.695 10.206H137.445ZM138.729 9.002C138.897 7.36867 139.952 6.552 141.893 6.552C142.798 6.552 143.517 6.72933 144.049 7.084C144.59 7.43867 144.861 7.98933 144.861 8.736V12.404C144.861 12.6093 144.884 12.7493 144.931 12.824C144.987 12.8987 145.09 12.936 145.239 12.936C145.351 12.936 145.472 12.9267 145.603 12.908V14.028C145.192 14.1307 144.847 14.182 144.567 14.182C143.886 14.182 143.494 13.8927 143.391 13.314C142.784 13.8927 141.94 14.182 140.857 14.182C140.11 14.182 139.518 13.9907 139.079 13.608C138.64 13.216 138.421 12.6887 138.421 12.026C138.421 11.8207 138.444 11.6293 138.491 11.452C138.538 11.2747 138.589 11.1207 138.645 10.99C138.71 10.8593 138.808 10.738 138.939 10.626C139.079 10.514 139.191 10.4207 139.275 10.346C139.368 10.2713 139.513 10.2013 139.709 10.136C139.914 10.0707 140.064 10.024 140.157 9.996C140.26 9.95867 140.432 9.92133 140.675 9.884C140.918 9.84667 141.076 9.82333 141.151 9.814C141.235 9.79533 141.403 9.772 141.655 9.744C142.224 9.66933 142.612 9.60867 142.817 9.562C143.022 9.506 143.162 9.42667 143.237 9.324C143.302 9.24933 143.335 9.07667 143.335 8.806C143.335 8.078 142.84 7.714 141.851 7.714C141.328 7.714 140.946 7.812 140.703 8.008C140.46 8.204 140.306 8.53533 140.241 9.002H138.729ZM143.321 10.374C143.2 10.4393 143.06 10.5 142.901 10.556C142.742 10.6027 142.612 10.6353 142.509 10.654C142.416 10.6633 142.262 10.682 142.047 10.71C141.842 10.738 141.706 10.7567 141.641 10.766C141.445 10.794 141.291 10.822 141.179 10.85C141.067 10.8687 140.927 10.906 140.759 10.962C140.6 11.018 140.474 11.088 140.381 11.172C140.297 11.2467 140.222 11.354 140.157 11.494C140.092 11.6247 140.059 11.7833 140.059 11.97C140.059 12.3153 140.171 12.5813 140.395 12.768C140.628 12.9547 140.95 13.048 141.361 13.048C142.07 13.048 142.616 12.8567 142.999 12.474C143.214 12.2593 143.321 11.844 143.321 11.228V10.374ZM148.174 14H146.578V6.776H148.174V9.604H151.338V6.776H152.934V14H151.338V10.864H148.174V14ZM161.365 14H159.433L157.165 10.766L156.213 11.76V14H154.617V6.776H156.213V9.982L159.097 6.776H161.043L158.229 9.674L161.365 14ZM167.723 8.036H165.343V14H163.747V8.036H161.367V6.776H167.723V8.036ZM171.786 9.408V10.892H167.684V9.408H171.786ZM181.539 4.032V14H179.789V5.544H175.225V14H173.475V4.032H181.539ZM189.865 11.746C189.687 12.53 189.3 13.1413 188.703 13.58C188.115 14.0187 187.41 14.238 186.589 14.238C185.497 14.238 184.629 13.888 183.985 13.188C183.35 12.4787 183.033 11.5733 183.033 10.472C183.033 9.34267 183.359 8.40933 184.013 7.672C184.675 6.93467 185.515 6.566 186.533 6.566C187.587 6.566 188.423 6.93 189.039 7.658C189.655 8.37667 189.963 9.36133 189.963 10.612V10.78H184.629C184.647 11.508 184.829 12.0727 185.175 12.474C185.52 12.866 186.001 13.062 186.617 13.062C187.055 13.062 187.41 12.9593 187.681 12.754C187.961 12.5393 188.18 12.2033 188.339 11.746H189.865ZM188.367 9.716C188.32 9.10933 188.129 8.63333 187.793 8.288C187.466 7.93333 187.041 7.756 186.519 7.756C185.996 7.756 185.571 7.924 185.245 8.26C184.927 8.596 184.731 9.08133 184.657 9.716H188.367ZM196.598 8.036H194.218V14H192.622V8.036H190.242V6.776H196.598V8.036ZM203.728 11.746C203.551 12.53 203.163 13.1413 202.566 13.58C201.978 14.0187 201.273 14.238 200.452 14.238C199.36 14.238 198.492 13.888 197.848 13.188C197.213 12.4787 196.896 11.5733 196.896 10.472C196.896 9.34267 197.223 8.40933 197.876 7.672C198.539 6.93467 199.379 6.566 200.396 6.566C201.451 6.566 202.286 6.93 202.902 7.658C203.518 8.37667 203.826 9.36133 203.826 10.612V10.78H198.492C198.511 11.508 198.693 12.0727 199.038 12.474C199.383 12.866 199.864 13.062 200.48 13.062C200.919 13.062 201.273 12.9593 201.544 12.754C201.824 12.5393 202.043 12.2033 202.202 11.746H203.728ZM202.23 9.716C202.183 9.10933 201.992 8.63333 201.656 8.288C201.329 7.93333 200.905 7.756 200.382 7.756C199.859 7.756 199.435 7.924 199.108 8.26C198.791 8.596 198.595 9.08133 198.52 9.716H202.23ZM206.565 6.776V7.742C207.051 6.958 207.835 6.566 208.917 6.566C209.916 6.566 210.714 6.916 211.311 7.616C211.909 8.316 212.207 9.24933 212.207 10.416C212.207 11.5547 211.913 12.4693 211.325 13.16C210.747 13.8413 209.972 14.182 209.001 14.182C207.975 14.182 207.191 13.804 206.649 13.048V16.674H205.067V6.776H206.565ZM208.595 7.854C207.97 7.854 207.48 8.078 207.125 8.526C206.771 8.974 206.593 9.59467 206.593 10.388C206.593 11.172 206.771 11.788 207.125 12.236C207.489 12.684 207.989 12.908 208.623 12.908C209.23 12.908 209.711 12.684 210.065 12.236C210.42 11.788 210.597 11.1813 210.597 10.416C210.597 9.632 210.415 9.01133 210.051 8.554C209.697 8.08733 209.211 7.854 208.595 7.854ZM220.542 10.472C220.542 11.6013 220.224 12.5067 219.59 13.188C218.955 13.86 218.11 14.196 217.056 14.196C215.432 14.196 214.34 13.5287 213.78 12.194C213.537 11.634 213.416 10.8733 213.416 9.912C213.416 8.01733 213.719 6.60333 214.326 5.67C214.643 5.18467 215.03 4.82533 215.488 4.592C215.945 4.34933 216.524 4.20467 217.224 4.158C217.308 4.14867 217.42 4.13933 217.56 4.13C217.709 4.12067 217.812 4.116 217.868 4.116C217.933 4.10667 218.012 4.09733 218.106 4.088C218.208 4.06933 218.278 4.05533 218.316 4.046C218.362 4.02733 218.414 4.00867 218.47 3.99C218.526 3.962 218.568 3.92933 218.596 3.892C218.624 3.85467 218.652 3.81267 218.68 3.766H220.276C220.248 3.934 220.206 4.088 220.15 4.228C220.103 4.368 220.052 4.48933 219.996 4.592C219.94 4.69467 219.856 4.788 219.744 4.872C219.641 4.956 219.552 5.026 219.478 5.082C219.412 5.138 219.305 5.18933 219.156 5.236C219.006 5.28267 218.89 5.32 218.806 5.348C218.722 5.36667 218.586 5.39 218.4 5.418C218.213 5.43667 218.073 5.45067 217.98 5.46C217.896 5.46933 217.742 5.48333 217.518 5.502C217.303 5.51133 217.149 5.52067 217.056 5.53C215.768 5.63267 214.923 6.538 214.522 8.246H214.564C214.872 7.75133 215.231 7.38267 215.642 7.14C216.052 6.888 216.594 6.762 217.266 6.762C218.199 6.762 218.978 7.10267 219.604 7.784C220.229 8.46533 220.542 9.36133 220.542 10.472ZM218.946 10.472C218.946 9.73467 218.764 9.142 218.4 8.694C218.045 8.246 217.574 8.022 216.986 8.022C216.398 8.022 215.922 8.246 215.558 8.694C215.203 9.13267 215.026 9.72533 215.026 10.472C215.026 11.2187 215.203 11.816 215.558 12.264C215.922 12.712 216.398 12.936 216.986 12.936C217.574 12.936 218.045 12.712 218.4 12.264C218.764 11.816 218.946 11.2187 218.946 10.472ZM228.103 6.776L225.429 13.86C225.401 13.9253 225.349 14.0607 225.275 14.266C225.2 14.4807 225.149 14.6253 225.121 14.7C225.093 14.7747 225.037 14.9053 224.953 15.092C224.878 15.2787 224.817 15.4093 224.771 15.484C224.724 15.5587 224.654 15.6707 224.561 15.82C224.467 15.9693 224.379 16.0767 224.295 16.142C224.22 16.2073 224.122 16.2867 224.001 16.38C223.889 16.4827 223.772 16.5527 223.651 16.59C223.529 16.6367 223.389 16.674 223.231 16.702C223.081 16.7393 222.918 16.758 222.741 16.758C222.442 16.758 222.073 16.73 221.635 16.674V15.33C221.971 15.3953 222.251 15.428 222.475 15.428C222.587 15.428 222.689 15.4093 222.783 15.372C222.876 15.344 222.96 15.288 223.035 15.204C223.109 15.1293 223.175 15.0547 223.231 14.98C223.287 14.9147 223.338 14.8167 223.385 14.686C223.441 14.5647 223.483 14.4667 223.511 14.392C223.539 14.3267 223.576 14.2193 223.623 14.07C223.669 13.9207 223.697 13.8273 223.707 13.79L220.935 6.776H222.685L224.617 12.096L226.437 6.776H228.103ZM230.518 6.776V7.742C231.004 6.958 231.788 6.566 232.87 6.566C233.869 6.566 234.667 6.916 235.264 7.616C235.862 8.316 236.16 9.24933 236.16 10.416C236.16 11.5547 235.866 12.4693 235.278 13.16C234.7 13.8413 233.925 14.182 232.954 14.182C231.928 14.182 231.144 13.804 230.602 13.048V16.674H229.02V6.776H230.518ZM232.548 7.854C231.923 7.854 231.433 8.078 231.078 8.526C230.724 8.974 230.546 9.59467 230.546 10.388C230.546 11.172 230.724 11.788 231.078 12.236C231.442 12.684 231.942 12.908 232.576 12.908C233.183 12.908 233.664 12.684 234.018 12.236C234.373 11.788 234.55 11.1813 234.55 10.416C234.55 9.632 234.368 9.01133 234.004 8.554C233.65 8.08733 233.164 7.854 232.548 7.854ZM242.605 8.036H239.147V14H237.551V6.776H242.605V8.036ZM244.066 12.11V13.538C244.066 14.266 243.926 14.8493 243.646 15.288C243.366 15.736 242.871 16.0393 242.162 16.198V15.358C242.741 15.1807 243.044 14.728 243.072 14H242.162V12.11H244.066ZM258.047 4.032V14H256.297V9.52H251.733V14H249.983V4.032H251.733V7.994H256.297V4.032H258.047ZM266.372 11.746C266.195 12.53 265.808 13.1413 265.21 13.58C264.622 14.0187 263.918 14.238 263.096 14.238C262.004 14.238 261.136 13.888 260.492 13.188C259.858 12.4787 259.54 11.5733 259.54 10.472C259.54 9.34267 259.867 8.40933 260.52 7.672C261.183 6.93467 262.023 6.566 263.04 6.566C264.095 6.566 264.93 6.93 265.546 7.658C266.162 8.37667 266.47 9.36133 266.47 10.612V10.78H261.136C261.155 11.508 261.337 12.0727 261.682 12.474C262.028 12.866 262.508 13.062 263.124 13.062C263.563 13.062 263.918 12.9593 264.188 12.754C264.468 12.5393 264.688 12.2033 264.846 11.746H266.372ZM264.874 9.716C264.828 9.10933 264.636 8.63333 264.3 8.288C263.974 7.93333 263.549 7.756 263.026 7.756C262.504 7.756 262.079 7.924 261.752 8.26C261.435 8.596 261.239 9.08133 261.164 9.716H264.874ZM274.138 11.956C274.138 12.6093 273.904 13.1133 273.438 13.468C272.98 13.8227 272.327 14 271.478 14H267.684V6.776H271.674C272.346 6.776 272.868 6.93 273.242 7.238C273.624 7.546 273.816 7.98 273.816 8.54C273.816 8.92267 273.732 9.23067 273.564 9.464C273.396 9.69733 273.134 9.898 272.78 10.066V10.094C273.685 10.3273 274.138 10.948 274.138 11.956ZM271.478 10.808H269.28V12.796H271.478C272.196 12.796 272.556 12.4693 272.556 11.816C272.556 11.4987 272.462 11.2513 272.276 11.074C272.089 10.8967 271.823 10.808 271.478 10.808ZM271.268 7.98H269.28V9.646H271.31C271.926 9.646 272.234 9.35667 272.234 8.778C272.234 8.246 271.912 7.98 271.268 7.98ZM282.015 11.27C281.903 12.1567 281.548 12.866 280.951 13.398C280.354 13.9207 279.602 14.182 278.697 14.182C277.614 14.182 276.751 13.8413 276.107 13.16C275.463 12.4693 275.141 11.5687 275.141 10.458C275.141 9.26333 275.463 8.316 276.107 7.616C276.76 6.90667 277.638 6.552 278.739 6.552C279.663 6.552 280.405 6.78533 280.965 7.252C281.534 7.71867 281.866 8.36733 281.959 9.198H280.377C280.284 8.74067 280.097 8.39067 279.817 8.148C279.537 7.90533 279.182 7.784 278.753 7.784C278.137 7.784 277.652 8.01733 277.297 8.484C276.942 8.94133 276.765 9.57133 276.765 10.374C276.765 11.1767 276.933 11.802 277.269 12.25C277.614 12.698 278.09 12.922 278.697 12.922C279.173 12.922 279.56 12.782 279.859 12.502C280.167 12.2127 280.363 11.802 280.447 11.27H282.015ZM289.99 14H288.058L285.79 10.766L284.838 11.76V14H283.242V6.776H284.838V9.982L287.722 6.776H289.668L286.854 9.674L289.99 14ZM292.778 14H290.762V6.776H292.358V12.04H292.4L295.102 6.776H297.118V14H295.522V8.736H295.48L292.778 14ZM304.275 3.794C304.2 4.466 303.976 4.96533 303.603 5.292C303.23 5.60933 302.688 5.768 301.979 5.768C301.27 5.768 300.728 5.60933 300.355 5.292C299.982 4.96533 299.758 4.466 299.683 3.794H300.495C300.672 4.50333 301.167 4.858 301.979 4.858C302.791 4.858 303.286 4.50333 303.463 3.794H304.275ZM300.817 14H298.801V6.776H300.397V12.04H300.439L303.141 6.776H305.157V14H303.561V8.736H303.519L300.817 14ZM130.114 34H128.518V26.776H134.874V34H133.278V28.036H130.114V34ZM143.025 31.746C142.847 32.53 142.46 33.1413 141.863 33.58C141.275 34.0187 140.57 34.238 139.749 34.238C138.657 34.238 137.789 33.888 137.145 33.188C136.51 32.4787 136.193 31.5733 136.193 30.472C136.193 29.3427 136.519 28.4093 137.173 27.672C137.835 26.9347 138.675 26.566 139.693 26.566C140.747 26.566 141.583 26.93 142.199 27.658C142.815 28.3767 143.123 29.3613 143.123 30.612V30.78H137.789C137.807 31.508 137.989 32.0727 138.335 32.474C138.68 32.866 139.161 33.062 139.777 33.062C140.215 33.062 140.57 32.9593 140.841 32.754C141.121 32.5393 141.34 32.2033 141.499 31.746H143.025ZM141.527 29.716C141.48 29.1093 141.289 28.6333 140.953 28.288C140.626 27.9333 140.201 27.756 139.679 27.756C139.156 27.756 138.731 27.924 138.405 28.26C138.087 28.596 137.891 29.0813 137.817 29.716H141.527ZM145.862 26.776V27.742C146.347 26.958 147.131 26.566 148.214 26.566C149.213 26.566 150.011 26.916 150.608 27.616C151.205 28.316 151.504 29.2493 151.504 30.416C151.504 31.5547 151.21 32.4693 150.622 33.16C150.043 33.8413 149.269 34.182 148.298 34.182C147.271 34.182 146.487 33.804 145.946 33.048V36.674H144.364V26.776H145.862ZM147.892 27.854C147.267 27.854 146.777 28.078 146.422 28.526C146.067 28.974 145.89 29.5947 145.89 30.388C145.89 31.172 146.067 31.788 146.422 32.236C146.786 32.684 147.285 32.908 147.92 32.908C148.527 32.908 149.007 32.684 149.362 32.236C149.717 31.788 149.894 31.1813 149.894 30.416C149.894 29.632 149.712 29.0113 149.348 28.554C148.993 28.0873 148.508 27.854 147.892 27.854ZM159.363 31.746C159.185 32.53 158.798 33.1413 158.201 33.58C157.613 34.0187 156.908 34.238 156.087 34.238C154.995 34.238 154.127 33.888 153.483 33.188C152.848 32.4787 152.531 31.5733 152.531 30.472C152.531 29.3427 152.857 28.4093 153.511 27.672C154.173 26.9347 155.013 26.566 156.031 26.566C157.085 26.566 157.921 26.93 158.537 27.658C159.153 28.3767 159.461 29.3613 159.461 30.612V30.78H154.127C154.145 31.508 154.327 32.0727 154.673 32.474C155.018 32.866 155.499 33.062 156.115 33.062C156.553 33.062 156.908 32.9593 157.179 32.754C157.459 32.5393 157.678 32.2033 157.837 31.746H159.363ZM157.865 29.716C157.818 29.1093 157.627 28.6333 157.291 28.288C156.964 27.9333 156.539 27.756 156.017 27.756C155.494 27.756 155.069 27.924 154.743 28.26C154.425 28.596 154.229 29.0813 154.155 29.716H157.865ZM166.88 26.776L164.206 33.86C164.178 33.9253 164.127 34.0607 164.052 34.266C163.977 34.4807 163.926 34.6253 163.898 34.7C163.87 34.7747 163.814 34.9053 163.73 35.092C163.655 35.2787 163.595 35.4093 163.548 35.484C163.501 35.5587 163.431 35.6707 163.338 35.82C163.245 35.9693 163.156 36.0767 163.072 36.142C162.997 36.2073 162.899 36.2867 162.778 36.38C162.666 36.4827 162.549 36.5527 162.428 36.59C162.307 36.6367 162.167 36.674 162.008 36.702C161.859 36.7393 161.695 36.758 161.518 36.758C161.219 36.758 160.851 36.73 160.412 36.674V35.33C160.748 35.3953 161.028 35.428 161.252 35.428C161.364 35.428 161.467 35.4093 161.56 35.372C161.653 35.344 161.737 35.288 161.812 35.204C161.887 35.1293 161.952 35.0547 162.008 34.98C162.064 34.9147 162.115 34.8167 162.162 34.686C162.218 34.5647 162.26 34.4667 162.288 34.392C162.316 34.3267 162.353 34.2193 162.4 34.07C162.447 33.9207 162.475 33.8273 162.484 33.79L159.712 26.776H161.462L163.394 32.096L165.214 26.776H166.88ZM173.675 34H172.079V28.036H169.867L169.769 31.2C169.741 32.1427 169.536 32.8753 169.153 33.398C168.78 33.9113 168.267 34.168 167.613 34.168C167.212 34.168 166.885 34.1167 166.633 34.014V32.768C166.727 32.8147 166.918 32.838 167.207 32.838C167.842 32.838 168.178 32.2407 168.215 31.046L168.341 26.776H173.675V34ZM178.676 26.566C179.778 26.566 180.655 26.9113 181.308 27.602C181.962 28.2927 182.288 29.2213 182.288 30.388C182.288 31.564 181.962 32.4973 181.308 33.188C180.664 33.8787 179.787 34.224 178.676 34.224C177.547 34.224 176.651 33.8787 175.988 33.188C175.326 32.4973 174.994 31.564 174.994 30.388C174.994 29.2213 175.326 28.2927 175.988 27.602C176.66 26.9113 177.556 26.566 178.676 26.566ZM180.132 28.512C179.778 28.0547 179.283 27.826 178.648 27.826C178.014 27.826 177.514 28.0547 177.15 28.512C176.786 28.9693 176.604 29.5947 176.604 30.388C176.604 31.2 176.786 31.8347 177.15 32.292C177.514 32.7493 178.018 32.978 178.662 32.978C179.288 32.978 179.778 32.7493 180.132 32.292C180.496 31.8253 180.678 31.186 180.678 30.374C180.678 29.5807 180.496 28.96 180.132 28.512ZM190.377 34H188.445L186.177 30.766L185.225 31.76V34H183.629V26.776H185.225V29.982L188.109 26.776H190.055L187.241 29.674L190.377 34ZM193.207 32.11V33.538C193.207 34.266 193.067 34.8493 192.787 35.288C192.507 35.736 192.012 36.0393 191.303 36.198V35.358C191.881 35.1807 192.185 34.728 192.213 34H191.303V32.11H193.207ZM206.362 36.296H204.85V34H199.712V36.296H198.2V32.74H199.11C199.679 31.4053 199.964 29.688 199.964 27.588V26.776H205.396V32.74H206.362V36.296ZM203.828 32.74V28.008H201.49V28.498C201.49 29.254 201.41 30.0473 201.252 30.878C201.093 31.6993 200.925 32.32 200.748 32.74H203.828ZM209.394 32.11V34H207.49V32.11H209.394ZM214.905 27.35C214.933 26.342 215.232 25.5487 215.801 24.97C216.37 24.3913 217.136 24.102 218.097 24.102C219.002 24.102 219.735 24.3447 220.295 24.83C220.855 25.3153 221.135 25.95 221.135 26.734C221.135 27.21 221.009 27.63 220.757 27.994C220.514 28.3487 220.183 28.596 219.763 28.736C220.314 28.876 220.748 29.1513 221.065 29.562C221.382 29.9633 221.541 30.458 221.541 31.046C221.541 31.9793 221.219 32.74 220.575 33.328C219.931 33.916 219.096 34.21 218.069 34.21C217.052 34.21 216.23 33.916 215.605 33.328C214.98 32.74 214.667 31.9607 214.667 30.99V30.78H216.207C216.254 32.152 216.888 32.838 218.111 32.838C218.652 32.838 219.082 32.684 219.399 32.376C219.716 32.0587 219.875 31.6293 219.875 31.088C219.875 30.5187 219.693 30.1033 219.329 29.842C218.965 29.5807 218.494 29.45 217.915 29.45C217.738 29.45 217.57 29.4547 217.411 29.464V28.26H217.551C217.84 28.26 218.088 28.246 218.293 28.218C218.498 28.1807 218.704 28.12 218.909 28.036C219.124 27.9427 219.287 27.798 219.399 27.602C219.511 27.3967 219.567 27.1447 219.567 26.846C219.567 26.4167 219.432 26.0713 219.161 25.81C218.89 25.5487 218.526 25.418 218.069 25.418C217.024 25.418 216.478 26.062 216.431 27.35H214.905ZM224.966 32.11V33.538C224.966 34.266 224.826 34.8493 224.546 35.288C224.266 35.736 223.772 36.0393 223.062 36.198V35.358C223.641 35.1807 223.944 34.728 223.972 34H223.062V32.11H224.966ZM234.047 26.566C235.149 26.566 236.026 26.9113 236.679 27.602C237.333 28.2927 237.659 29.2213 237.659 30.388C237.659 31.564 237.333 32.4973 236.679 33.188C236.035 33.8787 235.158 34.224 234.047 34.224C232.918 34.224 232.022 33.8787 231.359 33.188C230.697 32.4973 230.365 31.564 230.365 30.388C230.365 29.2213 230.697 28.2927 231.359 27.602C232.031 26.9113 232.927 26.566 234.047 26.566ZM235.503 28.512C235.149 28.0547 234.654 27.826 234.019 27.826C233.385 27.826 232.885 28.0547 232.521 28.512C232.157 28.9693 231.975 29.5947 231.975 30.388C231.975 31.2 232.157 31.8347 232.521 32.292C232.885 32.7493 233.389 32.978 234.033 32.978C234.659 32.978 235.149 32.7493 235.503 32.292C235.867 31.8253 236.049 31.186 236.049 30.374C236.049 29.5807 235.867 28.96 235.503 28.512ZM249.22 30.276C249.22 30.9947 249.127 31.6387 248.94 32.208C248.763 32.768 248.445 33.2393 247.988 33.622C247.531 34.0047 246.961 34.196 246.28 34.196C246.019 34.196 245.739 34.1307 245.44 34C245.141 33.86 244.922 33.7013 244.782 33.524H244.74V36.674H243.144V33.524H243.102C242.962 33.7013 242.743 33.86 242.444 34C242.145 34.1307 241.865 34.196 241.604 34.196C240.923 34.196 240.353 34.0047 239.896 33.622C239.439 33.2393 239.117 32.768 238.93 32.208C238.753 31.6387 238.664 30.9947 238.664 30.276C238.664 29.1373 238.921 28.2367 239.434 27.574C239.947 26.902 240.638 26.566 241.506 26.566C241.805 26.566 242.108 26.6407 242.416 26.79C242.733 26.9393 242.962 27.112 243.102 27.308H243.144V24.032H244.74V27.308H244.782C244.922 27.112 245.146 26.9393 245.454 26.79C245.771 26.6407 246.079 26.566 246.378 26.566C247.246 26.566 247.937 26.902 248.45 27.574C248.963 28.2367 249.22 29.1373 249.22 30.276ZM247.624 30.304C247.624 28.6333 247.097 27.798 246.042 27.798C245.762 27.798 245.496 27.868 245.244 28.008C245.001 28.1387 244.833 28.3533 244.74 28.652V32.166C244.787 32.39 244.922 32.5813 245.146 32.74C245.37 32.8893 245.645 32.964 245.972 32.964C246.56 32.964 246.98 32.712 247.232 32.208C247.493 31.704 247.624 31.0693 247.624 30.304ZM243.144 32.166V28.652C243.051 28.3533 242.878 28.1387 242.626 28.008C242.383 27.868 242.122 27.798 241.842 27.798C240.787 27.798 240.26 28.6333 240.26 30.304C240.26 31.0693 240.386 31.704 240.638 32.208C240.899 32.712 241.324 32.964 241.912 32.964C242.239 32.964 242.514 32.8893 242.738 32.74C242.962 32.5813 243.097 32.39 243.144 32.166ZM252.583 34H250.567V26.776H252.163V32.04H252.205L254.907 26.776H256.923V34H255.327V28.736H255.285L252.583 34ZM265.158 31.27C265.046 32.1567 264.691 32.866 264.094 33.398C263.496 33.9207 262.745 34.182 261.84 34.182C260.757 34.182 259.894 33.8413 259.25 33.16C258.606 32.4693 258.284 31.5687 258.284 30.458C258.284 29.2633 258.606 28.316 259.25 27.616C259.903 26.9067 260.78 26.552 261.882 26.552C262.806 26.552 263.548 26.7853 264.108 27.252C264.677 27.7187 265.008 28.3673 265.102 29.198H263.52C263.426 28.7407 263.24 28.3907 262.96 28.148C262.68 27.9053 262.325 27.784 261.896 27.784C261.28 27.784 260.794 28.0173 260.44 28.484C260.085 28.9413 259.908 29.5713 259.908 30.374C259.908 31.1767 260.076 31.802 260.412 32.25C260.757 32.698 261.233 32.922 261.84 32.922C262.316 32.922 262.703 32.782 263.002 32.502C263.31 32.2127 263.506 31.802 263.59 31.27H265.158ZM274.719 24.144V34H273.011V27.224H270.575V26.048C272.274 26.048 273.226 25.4133 273.431 24.144H274.719ZM281.085 24.116C283.362 24.116 284.501 25.81 284.501 29.198C284.501 30.8313 284.216 32.0727 283.647 32.922C283.077 33.7713 282.242 34.196 281.141 34.196C278.863 34.196 277.725 32.5207 277.725 29.17C277.725 27.518 278.009 26.2627 278.579 25.404C279.148 24.5453 279.983 24.116 281.085 24.116ZM281.099 25.46C280.819 25.46 280.576 25.516 280.371 25.628C280.165 25.7307 279.997 25.894 279.867 26.118C279.745 26.3327 279.647 26.552 279.573 26.776C279.498 26.9907 279.442 27.266 279.405 27.602C279.377 27.938 279.358 28.218 279.349 28.442C279.339 28.6567 279.335 28.932 279.335 29.268C279.335 30.528 279.475 31.4427 279.755 32.012C280.044 32.5813 280.501 32.866 281.127 32.866C281.369 32.866 281.584 32.8193 281.771 32.726C281.967 32.6233 282.125 32.502 282.247 32.362C282.368 32.222 282.471 32.0353 282.555 31.802C282.639 31.5687 282.699 31.3587 282.737 31.172C282.783 30.976 282.816 30.738 282.835 30.458C282.863 30.1687 282.877 29.9493 282.877 29.8C282.886 29.6413 282.891 29.4407 282.891 29.198C282.891 28.8807 282.886 28.638 282.877 28.47C282.877 28.2927 282.863 28.0313 282.835 27.686C282.807 27.3313 282.751 27.0467 282.667 26.832C282.592 26.6173 282.489 26.3933 282.359 26.16C282.237 25.9267 282.069 25.754 281.855 25.642C281.64 25.5207 281.388 25.46 281.099 25.46ZM289.774 29.408V30.892H285.672V29.408H289.774ZM297.455 32.586V34H290.763C290.773 33.5613 290.833 33.16 290.945 32.796C291.057 32.432 291.183 32.124 291.323 31.872C291.473 31.6107 291.687 31.3493 291.967 31.088C292.257 30.8173 292.513 30.598 292.737 30.43C292.971 30.2527 293.288 30.0287 293.689 29.758C293.717 29.7393 293.853 29.6507 294.095 29.492C294.347 29.324 294.501 29.2213 294.557 29.184C294.613 29.1373 294.739 29.0393 294.935 28.89C295.131 28.7313 295.257 28.6053 295.313 28.512C295.379 28.4187 295.463 28.2927 295.565 28.134C295.677 27.9753 295.752 27.8167 295.789 27.658C295.827 27.49 295.845 27.3127 295.845 27.126C295.845 26.6127 295.701 26.2113 295.411 25.922C295.131 25.6233 294.749 25.474 294.263 25.474C293.983 25.474 293.741 25.5207 293.535 25.614C293.33 25.698 293.167 25.81 293.045 25.95C292.933 26.09 292.84 26.272 292.765 26.496C292.691 26.7107 292.639 26.916 292.611 27.112C292.593 27.308 292.579 27.5367 292.569 27.798H291.015V27.546C291.015 26.4913 291.309 25.656 291.897 25.04C292.495 24.4147 293.297 24.102 294.305 24.102C295.257 24.102 296.023 24.3727 296.601 24.914C297.18 25.446 297.469 26.1553 297.469 27.042C297.469 27.3967 297.413 27.7327 297.301 28.05C297.189 28.3673 297.068 28.624 296.937 28.82C296.816 29.016 296.601 29.2447 296.293 29.506C295.985 29.7673 295.757 29.9493 295.607 30.052C295.458 30.1547 295.183 30.3413 294.781 30.612C293.615 31.368 292.915 32.026 292.681 32.586H297.455ZM304.899 24.256V25.642H300.993L300.545 28.162C300.983 27.6953 301.599 27.462 302.393 27.462C303.298 27.462 304.031 27.756 304.591 28.344C305.151 28.932 305.431 29.7067 305.431 30.668C305.431 31.704 305.104 32.5487 304.451 33.202C303.797 33.8553 302.957 34.182 301.931 34.182C300.96 34.182 300.171 33.916 299.565 33.384C298.967 32.8427 298.65 32.1193 298.613 31.214H300.195C300.232 31.718 300.414 32.1193 300.741 32.418C301.067 32.7167 301.478 32.866 301.973 32.866C302.551 32.866 302.999 32.684 303.317 32.32C303.634 31.9467 303.793 31.424 303.793 30.752C303.793 30.0987 303.629 29.5947 303.303 29.24C302.976 28.876 302.523 28.694 301.945 28.694C301.245 28.694 300.699 28.988 300.307 29.576L298.907 29.534L299.845 24.256H304.899Z" fill="white"/>
<path d="M48.5182 59.144V69H46.8102V62.224H44.3742V61.048C46.0729 61.048 47.0249 60.4133 47.2302 59.144H48.5182ZM58.0335 67.586V69H51.3415C51.3509 68.5613 51.4115 68.16 51.5235 67.796C51.6355 67.432 51.7615 67.124 51.9015 66.872C52.0509 66.6107 52.2655 66.3493 52.5455 66.088C52.8349 65.8173 53.0915 65.598 53.3155 65.43C53.5489 65.2527 53.8662 65.0287 54.2675 64.758C54.2955 64.7393 54.4309 64.6507 54.6735 64.492C54.9255 64.324 55.0795 64.2213 55.1355 64.184C55.1915 64.1373 55.3175 64.0393 55.5135 63.89C55.7095 63.7313 55.8355 63.6053 55.8915 63.512C55.9569 63.4187 56.0409 63.2927 56.1435 63.134C56.2555 62.9753 56.3302 62.8167 56.3675 62.658C56.4049 62.49 56.4235 62.3127 56.4235 62.126C56.4235 61.6127 56.2789 61.2113 55.9895 60.922C55.7095 60.6233 55.3269 60.474 54.8415 60.474C54.5615 60.474 54.3189 60.5207 54.1135 60.614C53.9082 60.698 53.7449 60.81 53.6235 60.95C53.5115 61.09 53.4182 61.272 53.3435 61.496C53.2689 61.7107 53.2175 61.916 53.1895 62.112C53.1709 62.308 53.1569 62.5367 53.1475 62.798H51.5935V62.546C51.5935 61.4913 51.8875 60.656 52.4755 60.04C53.0729 59.4147 53.8755 59.102 54.8835 59.102C55.8355 59.102 56.6009 59.3727 57.1795 59.914C57.7582 60.446 58.0475 61.1553 58.0475 62.042C58.0475 62.3967 57.9915 62.7327 57.8795 63.05C57.7675 63.3673 57.6462 63.624 57.5155 63.82C57.3942 64.016 57.1795 64.2447 56.8715 64.506C56.5635 64.7673 56.3349 64.9493 56.1855 65.052C56.0362 65.1547 55.7609 65.3413 55.3595 65.612C54.1929 66.368 53.4929 67.026 53.2595 67.586H58.0335ZM65.4768 59.256V60.642H61.5708L61.1228 63.162C61.5615 62.6953 62.1775 62.462 62.9708 62.462C63.8762 62.462 64.6088 62.756 65.1688 63.344C65.7288 63.932 66.0088 64.7067 66.0088 65.668C66.0088 66.704 65.6822 67.5487 65.0288 68.202C64.3755 68.8553 63.5355 69.182 62.5088 69.182C61.5382 69.182 60.7495 68.916 60.1428 68.384C59.5455 67.8427 59.2282 67.1193 59.1908 66.214H60.7728C60.8102 66.718 60.9922 67.1193 61.3188 67.418C61.6455 67.7167 62.0562 67.866 62.5508 67.866C63.1295 67.866 63.5775 67.684 63.8948 67.32C64.2122 66.9467 64.3708 66.424 64.3708 65.752C64.3708 65.0987 64.2075 64.5947 63.8808 64.24C63.5542 63.876 63.1015 63.694 62.5228 63.694C61.8228 63.694 61.2768 63.988 60.8848 64.576L59.4848 64.534L60.4228 59.256H65.4768ZM70.4421 59.116C72.7195 59.116 73.8581 60.81 73.8581 64.198C73.8581 65.8313 73.5735 67.0727 73.0041 67.922C72.4348 68.7713 71.5995 69.196 70.4981 69.196C68.2208 69.196 67.0821 67.5207 67.0821 64.17C67.0821 62.518 67.3668 61.2627 67.9361 60.404C68.5055 59.5453 69.3408 59.116 70.4421 59.116ZM70.4561 60.46C70.1761 60.46 69.9335 60.516 69.7281 60.628C69.5228 60.7307 69.3548 60.894 69.2241 61.118C69.1028 61.3327 69.0048 61.552 68.9301 61.776C68.8555 61.9907 68.7995 62.266 68.7621 62.602C68.7341 62.938 68.7155 63.218 68.7061 63.442C68.6968 63.6567 68.6921 63.932 68.6921 64.268C68.6921 65.528 68.8321 66.4427 69.1121 67.012C69.4015 67.5813 69.8588 67.866 70.4841 67.866C70.7268 67.866 70.9415 67.8193 71.1281 67.726C71.3241 67.6233 71.4828 67.502 71.6041 67.362C71.7255 67.222 71.8281 67.0353 71.9121 66.802C71.9961 66.5687 72.0568 66.3587 72.0941 66.172C72.1408 65.976 72.1735 65.738 72.1921 65.458C72.2201 65.1687 72.2341 64.9493 72.2341 64.8C72.2435 64.6413 72.2481 64.4407 72.2481 64.198C72.2481 63.8807 72.2435 63.638 72.2341 63.47C72.2341 63.2927 72.2201 63.0313 72.1921 62.686C72.1641 62.3313 72.1081 62.0467 72.0241 61.832C71.9495 61.6173 71.8468 61.3933 71.7161 61.16C71.5948 60.9267 71.4268 60.754 71.2121 60.642C70.9975 60.5207 70.7455 60.46 70.4561 60.46ZM81.6654 65.332V66.676H80.4194V69H78.8794L78.8654 66.676H74.7074V65.094L78.9074 59.116H80.4194V65.332H81.6654ZM78.8934 65.332V61.09L76.0234 65.332H78.8934ZM89.3327 59.256V60.6C88.3154 61.6173 87.4801 62.9053 86.8267 64.464C86.1734 66.0133 85.8187 67.5253 85.7627 69H84.0127C84.0501 67.6747 84.4374 66.1953 85.1747 64.562C85.9121 62.9193 86.7707 61.6407 87.7507 60.726H82.6547V59.256H89.3327ZM92.814 67.11V68.538C92.814 69.266 92.674 69.8493 92.394 70.288C92.114 70.736 91.6193 71.0393 90.91 71.198V70.358C91.4887 70.1807 91.792 69.728 91.82 69H90.91V67.11H92.814ZM109.119 59.032V69H107.453V61.314L104.681 69H103.253L100.411 61.314V69H98.759V59.032H101.209L103.995 66.83L106.683 59.032H109.119ZM114.336 61.566C115.438 61.566 116.315 61.9113 116.968 62.602C117.622 63.2927 117.948 64.2213 117.948 65.388C117.948 66.564 117.622 67.4973 116.968 68.188C116.324 68.8787 115.447 69.224 114.336 69.224C113.207 69.224 112.311 68.8787 111.648 68.188C110.986 67.4973 110.654 66.564 110.654 65.388C110.654 64.2213 110.986 63.2927 111.648 62.602C112.32 61.9113 113.216 61.566 114.336 61.566ZM115.792 63.512C115.438 63.0547 114.943 62.826 114.308 62.826C113.674 62.826 113.174 63.0547 112.81 63.512C112.446 63.9693 112.264 64.5947 112.264 65.388C112.264 66.2 112.446 66.8347 112.81 67.292C113.174 67.7493 113.678 67.978 114.322 67.978C114.948 67.978 115.438 67.7493 115.792 67.292C116.156 66.8253 116.338 66.186 116.338 65.374C116.338 64.5807 116.156 63.96 115.792 63.512ZM125.841 66.27C125.729 67.1567 125.375 67.866 124.777 68.398C124.18 68.9207 123.429 69.182 122.523 69.182C121.441 69.182 120.577 68.8413 119.933 68.16C119.289 67.4693 118.967 66.5687 118.967 65.458C118.967 64.2633 119.289 63.316 119.933 62.616C120.587 61.9067 121.464 61.552 122.565 61.552C123.489 61.552 124.231 61.7853 124.791 62.252C125.361 62.7187 125.692 63.3673 125.785 64.198H124.203C124.11 63.7407 123.923 63.3907 123.643 63.148C123.363 62.9053 123.009 62.784 122.579 62.784C121.963 62.784 121.478 63.0173 121.123 63.484C120.769 63.9413 120.591 64.5713 120.591 65.374C120.591 66.1767 120.759 66.802 121.095 67.25C121.441 67.698 121.917 67.922 122.523 67.922C122.999 67.922 123.387 67.782 123.685 67.502C123.993 67.2127 124.189 66.802 124.273 66.27H125.841ZM133.817 69H131.885L129.617 65.766L128.665 66.76V69H127.069V61.776H128.665V64.982L131.549 61.776H133.495L130.681 64.674L133.817 69ZM141.042 66.956C141.042 67.6093 140.809 68.1133 140.342 68.468C139.885 68.8227 139.231 69 138.382 69H134.588V61.776H138.578C139.25 61.776 139.773 61.93 140.146 62.238C140.529 62.546 140.72 62.98 140.72 63.54C140.72 63.9227 140.636 64.2307 140.468 64.464C140.3 64.6973 140.039 64.898 139.684 65.066V65.094C140.589 65.3273 141.042 65.948 141.042 66.956ZM138.382 65.808H136.184V67.796H138.382C139.101 67.796 139.46 67.4693 139.46 66.816C139.46 66.4987 139.367 66.2513 139.18 66.074C138.993 65.8967 138.727 65.808 138.382 65.808ZM138.172 62.98H136.184V64.646H138.214C138.83 64.646 139.138 64.3567 139.138 63.778C139.138 63.246 138.816 62.98 138.172 62.98ZM142.297 64.002C142.465 62.3687 143.52 61.552 145.461 61.552C146.367 61.552 147.085 61.7293 147.617 62.084C148.159 62.4387 148.429 62.9893 148.429 63.736V67.404C148.429 67.6093 148.453 67.7493 148.499 67.824C148.555 67.8987 148.658 67.936 148.807 67.936C148.919 67.936 149.041 67.9267 149.171 67.908V69.028C148.761 69.1307 148.415 69.182 148.135 69.182C147.454 69.182 147.062 68.8927 146.959 68.314C146.353 68.8927 145.508 69.182 144.425 69.182C143.679 69.182 143.086 68.9907 142.647 68.608C142.209 68.216 141.989 67.6887 141.989 67.026C141.989 66.8207 142.013 66.6293 142.059 66.452C142.106 66.2747 142.157 66.1207 142.213 65.99C142.279 65.8593 142.377 65.738 142.507 65.626C142.647 65.514 142.759 65.4207 142.843 65.346C142.937 65.2713 143.081 65.2013 143.277 65.136C143.483 65.0707 143.632 65.024 143.725 64.996C143.828 64.9587 144.001 64.9213 144.243 64.884C144.486 64.8467 144.645 64.8233 144.719 64.814C144.803 64.7953 144.971 64.772 145.223 64.744C145.793 64.6693 146.18 64.6087 146.385 64.562C146.591 64.506 146.731 64.4267 146.805 64.324C146.871 64.2493 146.903 64.0767 146.903 63.806C146.903 63.078 146.409 62.714 145.419 62.714C144.897 62.714 144.514 62.812 144.271 63.008C144.029 63.204 143.875 63.5353 143.809 64.002H142.297ZM146.889 65.374C146.768 65.4393 146.628 65.5 146.469 65.556C146.311 65.6027 146.18 65.6353 146.077 65.654C145.984 65.6633 145.83 65.682 145.615 65.71C145.41 65.738 145.275 65.7567 145.209 65.766C145.013 65.794 144.859 65.822 144.747 65.85C144.635 65.8687 144.495 65.906 144.327 65.962C144.169 66.018 144.043 66.088 143.949 66.172C143.865 66.2467 143.791 66.354 143.725 66.494C143.66 66.6247 143.627 66.7833 143.627 66.97C143.627 67.3153 143.739 67.5813 143.963 67.768C144.197 67.9547 144.519 68.048 144.929 68.048C145.639 68.048 146.185 67.8567 146.567 67.474C146.782 67.2593 146.889 66.844 146.889 66.228V65.374ZM152.205 67.11V68.538C152.205 69.266 152.065 69.8493 151.785 70.288C151.505 70.736 151.01 71.0393 150.301 71.198V70.358C150.879 70.1807 151.183 69.728 151.211 69H150.301V67.11H152.205ZM166.186 59.032V69H164.436V60.544H159.872V69H158.122V59.032H166.186ZM171.389 61.566C172.49 61.566 173.368 61.9113 174.021 62.602C174.674 63.2927 175.001 64.2213 175.001 65.388C175.001 66.564 174.674 67.4973 174.021 68.188C173.377 68.8787 172.5 69.224 171.389 69.224C170.26 69.224 169.364 68.8787 168.701 68.188C168.038 67.4973 167.707 66.564 167.707 65.388C167.707 64.2213 168.038 63.2927 168.701 62.602C169.373 61.9113 170.269 61.566 171.389 61.566ZM172.845 63.512C172.49 63.0547 171.996 62.826 171.361 62.826C170.726 62.826 170.227 63.0547 169.863 63.512C169.499 63.9693 169.317 64.5947 169.317 65.388C169.317 66.2 169.499 66.8347 169.863 67.292C170.227 67.7493 170.731 67.978 171.375 67.978C172 67.978 172.49 67.7493 172.845 67.292C173.209 66.8253 173.391 66.186 173.391 65.374C173.391 64.5807 173.209 63.96 172.845 63.512ZM183.09 69H181.158L178.89 65.766L177.938 66.76V69H176.342V61.776H177.938V64.982L180.822 61.776H182.768L179.954 64.674L183.09 69ZM185.387 61.776V62.742C185.873 61.958 186.657 61.566 187.739 61.566C188.738 61.566 189.536 61.916 190.133 62.616C190.731 63.316 191.029 64.2493 191.029 65.416C191.029 66.5547 190.735 67.4693 190.147 68.16C189.569 68.8413 188.794 69.182 187.823 69.182C186.797 69.182 186.013 68.804 185.471 68.048V71.674H183.889V61.776H185.387ZM187.417 62.854C186.792 62.854 186.302 63.078 185.947 63.526C185.593 63.974 185.415 64.5947 185.415 65.388C185.415 66.172 185.593 66.788 185.947 67.236C186.311 67.684 186.811 67.908 187.445 67.908C188.052 67.908 188.533 67.684 188.887 67.236C189.242 66.788 189.419 66.1813 189.419 65.416C189.419 64.632 189.237 64.0113 188.873 63.554C188.519 63.0873 188.033 62.854 187.417 62.854ZM195.766 61.566C196.867 61.566 197.745 61.9113 198.398 62.602C199.051 63.2927 199.378 64.2213 199.378 65.388C199.378 66.564 199.051 67.4973 198.398 68.188C197.754 68.8787 196.877 69.224 195.766 69.224C194.637 69.224 193.741 68.8787 193.078 68.188C192.415 67.4973 192.084 66.564 192.084 65.388C192.084 64.2213 192.415 63.2927 193.078 62.602C193.75 61.9113 194.646 61.566 195.766 61.566ZM197.222 63.512C196.867 63.0547 196.373 62.826 195.738 62.826C195.103 62.826 194.604 63.0547 194.24 63.512C193.876 63.9693 193.694 64.5947 193.694 65.388C193.694 66.2 193.876 66.8347 194.24 67.292C194.604 67.7493 195.108 67.978 195.752 67.978C196.377 67.978 196.867 67.7493 197.222 67.292C197.586 66.8253 197.768 66.186 197.768 65.374C197.768 64.5807 197.586 63.96 197.222 63.512ZM207.173 66.956C207.173 67.6093 206.94 68.1133 206.473 68.468C206.016 68.8227 205.362 69 204.513 69H200.719V61.776H204.709C205.381 61.776 205.904 61.93 206.277 62.238C206.66 62.546 206.851 62.98 206.851 63.54C206.851 63.9227 206.767 64.2307 206.599 64.464C206.431 64.6973 206.17 64.898 205.815 65.066V65.094C206.72 65.3273 207.173 65.948 207.173 66.956ZM204.513 65.808H202.315V67.796H204.513C205.232 67.796 205.591 67.4693 205.591 66.816C205.591 66.4987 205.498 66.2513 205.311 66.074C205.124 65.8967 204.858 65.808 204.513 65.808ZM204.303 62.98H202.315V64.646H204.345C204.961 64.646 205.269 64.3567 205.269 63.778C205.269 63.246 204.947 62.98 204.303 62.98ZM215.05 66.27C214.938 67.1567 214.584 67.866 213.986 68.398C213.389 68.9207 212.638 69.182 211.732 69.182C210.65 69.182 209.786 68.8413 209.142 68.16C208.498 67.4693 208.176 66.5687 208.176 65.458C208.176 64.2633 208.498 63.316 209.142 62.616C209.796 61.9067 210.673 61.552 211.774 61.552C212.698 61.552 213.44 61.7853 214 62.252C214.57 62.7187 214.901 63.3673 214.994 64.198H213.412C213.319 63.7407 213.132 63.3907 212.852 63.148C212.572 62.9053 212.218 62.784 211.788 62.784C211.172 62.784 210.687 63.0173 210.332 63.484C209.978 63.9413 209.8 64.5713 209.8 65.374C209.8 66.1767 209.968 66.802 210.304 67.25C210.65 67.698 211.126 67.922 211.732 67.922C212.208 67.922 212.596 67.782 212.894 67.502C213.202 67.2127 213.398 66.802 213.482 66.27H215.05ZM223.026 69H221.094L218.826 65.766L217.874 66.76V69H216.278V61.776H217.874V64.982L220.758 61.776H222.704L219.89 64.674L223.026 69ZM223.727 64.002C223.895 62.3687 224.95 61.552 226.891 61.552C227.796 61.552 228.515 61.7293 229.047 62.084C229.588 62.4387 229.859 62.9893 229.859 63.736V67.404C229.859 67.6093 229.882 67.7493 229.929 67.824C229.985 67.8987 230.088 67.936 230.237 67.936C230.349 67.936 230.47 67.9267 230.601 67.908V69.028C230.19 69.1307 229.845 69.182 229.565 69.182C228.884 69.182 228.492 68.8927 228.389 68.314C227.782 68.8927 226.938 69.182 225.855 69.182C225.108 69.182 224.516 68.9907 224.077 68.608C223.638 68.216 223.419 67.6887 223.419 67.026C223.419 66.8207 223.442 66.6293 223.489 66.452C223.536 66.2747 223.587 66.1207 223.643 65.99C223.708 65.8593 223.806 65.738 223.937 65.626C224.077 65.514 224.189 65.4207 224.273 65.346C224.366 65.2713 224.511 65.2013 224.707 65.136C224.912 65.0707 225.062 65.024 225.155 64.996C225.258 64.9587 225.43 64.9213 225.673 64.884C225.916 64.8467 226.074 64.8233 226.149 64.814C226.233 64.7953 226.401 64.772 226.653 64.744C227.222 64.6693 227.61 64.6087 227.815 64.562C228.02 64.506 228.16 64.4267 228.235 64.324C228.3 64.2493 228.333 64.0767 228.333 63.806C228.333 63.078 227.838 62.714 226.849 62.714C226.326 62.714 225.944 62.812 225.701 63.008C225.458 63.204 225.304 63.5353 225.239 64.002H223.727ZM228.319 65.374C228.198 65.4393 228.058 65.5 227.899 65.556C227.74 65.6027 227.61 65.6353 227.507 65.654C227.414 65.6633 227.26 65.682 227.045 65.71C226.84 65.738 226.704 65.7567 226.639 65.766C226.443 65.794 226.289 65.822 226.177 65.85C226.065 65.8687 225.925 65.906 225.757 65.962C225.598 66.018 225.472 66.088 225.379 66.172C225.295 66.2467 225.22 66.354 225.155 66.494C225.09 66.6247 225.057 66.7833 225.057 66.97C225.057 67.3153 225.169 67.5813 225.393 67.768C225.626 67.9547 225.948 68.048 226.359 68.048C227.068 68.048 227.614 67.8567 227.997 67.474C228.212 67.2593 228.319 66.844 228.319 66.228V65.374ZM237.68 69H236.084V66.088H234.726L232.5 69H230.624L233.032 65.906C232.444 65.7193 232.038 65.4487 231.814 65.094C231.59 64.73 231.478 64.2913 231.478 63.778C231.478 63.1433 231.684 62.6533 232.094 62.308C232.505 61.9533 233.093 61.776 233.858 61.776H237.68V69ZM236.084 64.926V62.994H234.152C233.434 62.994 233.074 63.302 233.074 63.918C233.074 64.59 233.429 64.926 234.138 64.926H236.084ZM244.848 69H243.252V61.776H249.608V69H248.012V63.036H244.848V69ZM257.675 69H256.079V63.036H253.867L253.769 66.2C253.741 67.1427 253.536 67.8753 253.153 68.398C252.78 68.9113 252.267 69.168 251.613 69.168C251.212 69.168 250.885 69.1167 250.633 69.014V67.768C250.727 67.8147 250.918 67.838 251.207 67.838C251.842 67.838 252.178 67.2407 252.215 66.046L252.341 61.776H257.675V69ZM262.676 61.566C263.778 61.566 264.655 61.9113 265.308 62.602C265.962 63.2927 266.288 64.2213 266.288 65.388C266.288 66.564 265.962 67.4973 265.308 68.188C264.664 68.8787 263.787 69.224 262.676 69.224C261.547 69.224 260.651 68.8787 259.988 68.188C259.326 67.4973 258.994 66.564 258.994 65.388C258.994 64.2213 259.326 63.2927 259.988 62.602C260.66 61.9113 261.556 61.566 262.676 61.566ZM264.132 63.512C263.778 63.0547 263.283 62.826 262.648 62.826C262.014 62.826 261.514 63.0547 261.15 63.512C260.786 63.9693 260.604 64.5947 260.604 65.388C260.604 66.2 260.786 66.8347 261.15 67.292C261.514 67.7493 262.018 67.978 262.662 67.978C263.288 67.978 263.778 67.7493 264.132 67.292C264.496 66.8253 264.678 66.186 264.678 65.374C264.678 64.5807 264.496 63.96 264.132 63.512ZM267.629 69V61.776H269.225V67.74H271.689V61.776H273.285V67.74H275.749V61.776H277.345V67.74H278.311V71.296H276.771V69H267.629ZM279.18 64.002C279.348 62.3687 280.403 61.552 282.344 61.552C283.249 61.552 283.968 61.7293 284.5 62.084C285.041 62.4387 285.312 62.9893 285.312 63.736V67.404C285.312 67.6093 285.335 67.7493 285.382 67.824C285.438 67.8987 285.541 67.936 285.69 67.936C285.802 67.936 285.923 67.9267 286.054 67.908V69.028C285.643 69.1307 285.298 69.182 285.018 69.182C284.337 69.182 283.945 68.8927 283.842 68.314C283.235 68.8927 282.391 69.182 281.308 69.182C280.561 69.182 279.969 68.9907 279.53 68.608C279.091 68.216 278.872 67.6887 278.872 67.026C278.872 66.8207 278.895 66.6293 278.942 66.452C278.989 66.2747 279.04 66.1207 279.096 65.99C279.161 65.8593 279.259 65.738 279.39 65.626C279.53 65.514 279.642 65.4207 279.726 65.346C279.819 65.2713 279.964 65.2013 280.16 65.136C280.365 65.0707 280.515 65.024 280.608 64.996C280.711 64.9587 280.883 64.9213 281.126 64.884C281.369 64.8467 281.527 64.8233 281.602 64.814C281.686 64.7953 281.854 64.772 282.106 64.744C282.675 64.6693 283.063 64.6087 283.268 64.562C283.473 64.506 283.613 64.4267 283.688 64.324C283.753 64.2493 283.786 64.0767 283.786 63.806C283.786 63.078 283.291 62.714 282.302 62.714C281.779 62.714 281.397 62.812 281.154 63.008C280.911 63.204 280.757 63.5353 280.692 64.002H279.18ZM283.772 65.374C283.651 65.4393 283.511 65.5 283.352 65.556C283.193 65.6027 283.063 65.6353 282.96 65.654C282.867 65.6633 282.713 65.682 282.498 65.71C282.293 65.738 282.157 65.7567 282.092 65.766C281.896 65.794 281.742 65.822 281.63 65.85C281.518 65.8687 281.378 65.906 281.21 65.962C281.051 66.018 280.925 66.088 280.832 66.172C280.748 66.2467 280.673 66.354 280.608 66.494C280.543 66.6247 280.51 66.7833 280.51 66.97C280.51 67.3153 280.622 67.5813 280.846 67.768C281.079 67.9547 281.401 68.048 281.812 68.048C282.521 68.048 283.067 67.8567 283.45 67.474C283.665 67.2593 283.772 66.844 283.772 66.228V65.374ZM294.449 71.296H292.937V69H287.799V71.296H286.287V67.74H287.197C287.767 66.4053 288.051 64.688 288.051 62.588V61.776H293.483V67.74H294.449V71.296ZM291.915 67.74V63.008H289.577V63.498C289.577 64.254 289.498 65.0473 289.339 65.878C289.181 66.6993 289.013 67.32 288.835 67.74H291.915ZM301.038 65.01C301.467 65.4113 301.682 65.9713 301.682 66.69C301.682 67.4087 301.467 67.9733 301.038 68.384C300.609 68.7947 300.007 69 299.232 69H295.424V61.776H297.02V64.394H299.218C300.002 64.394 300.609 64.5993 301.038 65.01ZM300.086 66.718C300.086 66.3913 299.993 66.13 299.806 65.934C299.619 65.738 299.358 65.64 299.022 65.64H297.02V67.754H299.05C299.395 67.754 299.652 67.6607 299.82 67.474C299.997 67.278 300.086 67.026 300.086 66.718ZM305.002 67.11V68.538C305.002 69.266 304.862 69.8493 304.582 70.288C304.302 70.736 303.807 71.0393 303.098 71.198V70.358C303.676 70.1807 303.98 69.728 304.008 69H303.098V67.11H305.002ZM225.065 91.296H223.553V89H218.415V91.296H216.903V87.74H217.813C218.382 86.4053 218.667 84.688 218.667 82.588V81.776H224.099V87.74H225.065V91.296ZM222.531 87.74V83.008H220.193V83.498C220.193 84.254 220.113 85.0473 219.955 85.878C219.796 86.6993 219.628 87.32 219.451 87.74H222.531ZM228.097 87.11V89H226.193V87.11H228.097ZM229.712 82.35C229.74 81.342 230.038 80.5487 230.608 79.97C231.177 79.3913 231.942 79.102 232.904 79.102C233.809 79.102 234.542 79.3447 235.102 79.83C235.662 80.3153 235.942 80.95 235.942 81.734C235.942 82.21 235.816 82.63 235.564 82.994C235.321 83.3487 234.99 83.596 234.57 83.736C235.12 83.876 235.554 84.1513 235.872 84.562C236.189 84.9633 236.348 85.458 236.348 86.046C236.348 86.9793 236.026 87.74 235.382 88.328C234.738 88.916 233.902 89.21 232.876 89.21C231.858 89.21 231.037 88.916 230.412 88.328C229.786 87.74 229.474 86.9607 229.474 85.99V85.78H231.014C231.06 87.152 231.695 87.838 232.918 87.838C233.459 87.838 233.888 87.684 234.206 87.376C234.523 87.0587 234.682 86.6293 234.682 86.088C234.682 85.5187 234.5 85.1033 234.136 84.842C233.772 84.5807 233.3 84.45 232.722 84.45C232.544 84.45 232.376 84.4547 232.218 84.464V83.26H232.358C232.647 83.26 232.894 83.246 233.1 83.218C233.305 83.1807 233.51 83.12 233.716 83.036C233.93 82.9427 234.094 82.798 234.206 82.602C234.318 82.3967 234.374 82.1447 234.374 81.846C234.374 81.4167 234.238 81.0713 233.968 80.81C233.697 80.5487 233.333 80.418 232.876 80.418C231.83 80.418 231.284 81.062 231.238 82.35H229.712ZM239.773 87.11V88.538C239.773 89.266 239.633 89.8493 239.353 90.288C239.073 90.736 238.578 91.0393 237.869 91.198V90.358C238.448 90.1807 238.751 89.728 238.779 89H237.869V87.11H239.773ZM252.256 89H250.324L248.056 85.766L247.104 86.76V89H245.508V81.776H247.104V84.982L249.988 81.776H251.934L249.12 84.674L252.256 89ZM255.086 87.11V89H253.182V87.11H255.086ZM266.658 79.256V80.642H262.752L262.304 83.162C262.743 82.6953 263.359 82.462 264.152 82.462C265.058 82.462 265.79 82.756 266.35 83.344C266.91 83.932 267.19 84.7067 267.19 85.668C267.19 86.704 266.864 87.5487 266.21 88.202C265.557 88.8553 264.717 89.182 263.69 89.182C262.72 89.182 261.931 88.916 261.324 88.384C260.727 87.8427 260.41 87.1193 260.372 86.214H261.954C261.992 86.718 262.174 87.1193 262.5 87.418C262.827 87.7167 263.238 87.866 263.732 87.866C264.311 87.866 264.759 87.684 265.076 87.32C265.394 86.9467 265.552 86.424 265.552 85.752C265.552 85.0987 265.389 84.5947 265.062 84.24C264.736 83.876 264.283 83.694 263.704 83.694C263.004 83.694 262.458 83.988 262.066 84.576L260.666 84.534L261.604 79.256H266.658ZM270.658 87.11V88.538C270.658 89.266 270.518 89.8493 270.238 90.288C269.958 90.736 269.463 91.0393 268.754 91.198V90.358C269.332 90.1807 269.636 89.728 269.664 89H268.754V87.11H270.658ZM279.048 86.27C278.936 87.1567 278.582 87.866 277.984 88.398C277.387 88.9207 276.636 89.182 275.73 89.182C274.648 89.182 273.784 88.8413 273.14 88.16C272.496 87.4693 272.174 86.5687 272.174 85.458C272.174 84.2633 272.496 83.316 273.14 82.616C273.794 81.9067 274.671 81.552 275.772 81.552C276.696 81.552 277.438 81.7853 277.998 82.252C278.568 82.7187 278.899 83.3673 278.992 84.198H277.41C277.317 83.7407 277.13 83.3907 276.85 83.148C276.57 82.9053 276.216 82.784 275.786 82.784C275.17 82.784 274.685 83.0173 274.33 83.484C273.976 83.9413 273.798 84.5713 273.798 85.374C273.798 86.1767 273.966 86.802 274.302 87.25C274.648 87.698 275.124 87.922 275.73 87.922C276.206 87.922 276.594 87.782 276.892 87.502C277.2 87.2127 277.396 86.802 277.48 86.27H279.048ZM285.697 83.036H283.317V89H281.721V83.036H279.341V81.776H285.697V83.036ZM288.132 81.776V82.742C288.617 81.958 289.401 81.566 290.484 81.566C291.482 81.566 292.28 81.916 292.878 82.616C293.475 83.316 293.774 84.2493 293.774 85.416C293.774 86.5547 293.48 87.4693 292.892 88.16C292.313 88.8413 291.538 89.182 290.568 89.182C289.541 89.182 288.757 88.804 288.216 88.048V91.674H286.634V81.776H288.132ZM290.162 82.854C289.536 82.854 289.046 83.078 288.692 83.526C288.337 83.974 288.16 84.5947 288.16 85.388C288.16 86.172 288.337 86.788 288.692 87.236C289.056 87.684 289.555 87.908 290.19 87.908C290.796 87.908 291.277 87.684 291.632 87.236C291.986 86.788 292.164 86.1813 292.164 85.416C292.164 84.632 291.982 84.0113 291.618 83.554C291.263 83.0873 290.778 82.854 290.162 82.854ZM303.499 79.144V89H301.791V82.224H299.355V81.048C301.053 81.048 302.005 80.4133 302.211 79.144H303.499Z" fill="white"/>
<path d="M176.097 139V136.074H173.213V134.66H176.097V131.734H177.609V134.66H180.493V136.074H177.609V139H176.097ZM188.957 129.284V130.922C187.875 132.107 187.086 133.33 186.591 134.59C186.106 135.841 185.817 137.311 185.723 139H183.665C183.665 137.824 183.997 136.429 184.659 134.814C185.331 133.19 186.092 131.944 186.941 131.076H182.265V129.284H188.957ZM199.051 128.878C198.51 129.961 198.113 130.997 197.861 131.986C197.618 132.975 197.497 134.063 197.497 135.248C197.497 137.301 198.024 139.383 199.079 141.492H197.399C196.82 140.615 196.368 139.63 196.041 138.538C195.724 137.446 195.565 136.363 195.565 135.29C195.565 134.17 195.719 133.041 196.027 131.902C196.344 130.754 196.802 129.746 197.399 128.878H199.051ZM207.212 135.094V136.746H205.896V139H204.048V136.746H199.848V134.912L204.104 129.172H205.896V135.094H207.212ZM204.048 135.094V131.454L201.444 135.094H204.048ZM208.551 136.536H210.441C210.6 137.283 211.048 137.656 211.785 137.656C212.13 137.656 212.42 137.563 212.653 137.376C212.896 137.189 213.078 136.928 213.199 136.592C213.32 136.256 213.409 135.953 213.465 135.682C213.521 135.402 213.563 135.08 213.591 134.716C213.059 135.472 212.359 135.85 211.491 135.85C210.586 135.85 209.839 135.547 209.251 134.94C208.672 134.333 208.383 133.559 208.383 132.616C208.383 131.617 208.719 130.787 209.391 130.124C210.063 129.452 210.903 129.116 211.911 129.116C212.564 129.116 213.134 129.256 213.619 129.536C214.114 129.807 214.496 130.175 214.767 130.642C215.038 131.109 215.238 131.613 215.369 132.154C215.5 132.695 215.565 133.274 215.565 133.89C215.565 134.525 215.5 135.136 215.369 135.724C215.238 136.312 215.033 136.872 214.753 137.404C214.482 137.936 214.09 138.365 213.577 138.692C213.064 139.009 212.466 139.168 211.785 139.168C210.889 139.168 210.152 138.93 209.573 138.454C208.994 137.978 208.654 137.339 208.551 136.536ZM211.869 130.754C211.43 130.754 211.062 130.927 210.763 131.272C210.474 131.608 210.329 132.033 210.329 132.546C210.329 133.069 210.474 133.498 210.763 133.834C211.052 134.17 211.426 134.338 211.883 134.338C212.331 134.338 212.7 134.17 212.989 133.834C213.288 133.498 213.437 133.073 213.437 132.56C213.437 132.047 213.288 131.617 212.989 131.272C212.69 130.927 212.317 130.754 211.869 130.754ZM223.512 129.284V130.978H219.494L219.116 133.106C219.574 132.649 220.176 132.42 220.922 132.42C221.865 132.42 222.621 132.714 223.19 133.302C223.76 133.89 224.044 134.665 224.044 135.626C224.044 136.653 223.699 137.497 223.008 138.16C222.318 138.823 221.431 139.154 220.348 139.154C219.322 139.154 218.482 138.893 217.828 138.37C217.184 137.838 216.834 137.082 216.778 136.102H218.738C218.785 136.531 218.953 136.881 219.242 137.152C219.541 137.413 219.91 137.544 220.348 137.544C220.843 137.544 221.249 137.371 221.566 137.026C221.884 136.671 222.042 136.219 222.042 135.668C222.042 135.117 221.888 134.679 221.58 134.352C221.272 134.025 220.857 133.862 220.334 133.862C219.709 133.862 219.219 134.133 218.864 134.674H217.086L218.038 129.284H223.512ZM225.048 128.878H226.7C227.941 130.782 228.562 132.859 228.562 135.108C228.562 136.163 228.398 137.301 228.072 138.524C227.745 139.747 227.297 140.736 226.728 141.492H225.062C225.622 140.353 226.018 139.303 226.252 138.342C226.494 137.371 226.616 136.284 226.616 135.08C226.616 132.821 226.093 130.754 225.048 128.878ZM240.087 129.2V139H237.973V132.63H235.593V131.16H235.845C237.329 131.16 238.197 130.507 238.449 129.2H240.087ZM250.414 137.278V139H243.232C243.241 138.561 243.297 138.16 243.4 137.796C243.512 137.423 243.638 137.11 243.778 136.858C243.927 136.606 244.151 136.34 244.45 136.06C244.749 135.78 245.01 135.556 245.234 135.388C245.467 135.22 245.803 134.987 246.242 134.688C246.298 134.651 246.447 134.553 246.69 134.394C246.933 134.235 247.101 134.123 247.194 134.058C247.287 133.993 247.427 133.881 247.614 133.722C247.801 133.554 247.931 133.409 248.006 133.288C248.09 133.167 248.169 133.017 248.244 132.84C248.319 132.653 248.356 132.462 248.356 132.266C248.356 131.837 248.225 131.496 247.964 131.244C247.712 130.983 247.376 130.852 246.956 130.852C245.948 130.852 245.416 131.561 245.36 132.98H243.456V132.77C243.456 131.659 243.778 130.777 244.422 130.124C245.066 129.461 245.934 129.13 247.026 129.13C248.015 129.13 248.818 129.41 249.434 129.97C250.05 130.521 250.358 131.239 250.358 132.126C250.358 132.845 250.195 133.419 249.868 133.848C249.541 134.277 249.028 134.73 248.328 135.206C248.235 135.271 248.062 135.388 247.81 135.556C247.558 135.715 247.357 135.845 247.208 135.948C247.068 136.051 246.895 136.181 246.69 136.34C246.485 136.499 246.307 136.657 246.158 136.816C246.009 136.965 245.883 137.119 245.78 137.278H250.414ZM251.949 132.406C251.987 131.389 252.304 130.591 252.901 130.012C253.499 129.424 254.311 129.13 255.337 129.13C256.308 129.13 257.092 129.382 257.689 129.886C258.296 130.381 258.599 131.025 258.599 131.818C258.599 132.294 258.473 132.709 258.221 133.064C257.979 133.409 257.647 133.638 257.227 133.75C257.769 133.881 258.193 134.147 258.501 134.548C258.809 134.94 258.963 135.425 258.963 136.004C258.963 136.937 258.623 137.703 257.941 138.3C257.269 138.888 256.397 139.182 255.323 139.182C254.213 139.182 253.331 138.874 252.677 138.258C252.024 137.642 251.697 136.811 251.697 135.766V135.626H253.615C253.625 136.233 253.769 136.699 254.049 137.026C254.339 137.343 254.749 137.502 255.281 137.502C255.767 137.502 256.159 137.367 256.457 137.096C256.756 136.816 256.905 136.457 256.905 136.018C256.905 135.505 256.737 135.136 256.401 134.912C256.075 134.679 255.65 134.562 255.127 134.562C254.931 134.562 254.768 134.567 254.637 134.576V133.176C254.74 133.185 254.852 133.19 254.973 133.19C256.112 133.19 256.681 132.779 256.681 131.958C256.681 131.585 256.555 131.286 256.303 131.062C256.061 130.838 255.734 130.726 255.323 130.726C254.857 130.726 254.493 130.871 254.231 131.16C253.979 131.449 253.849 131.865 253.839 132.406H251.949ZM264.936 134.296V136.074H260.722V134.296H264.936ZM273.928 135.094V136.746H272.612V139H270.764V136.746H266.564V134.912L270.82 129.172H272.612V135.094H273.928ZM270.764 135.094V131.454L268.16 135.094H270.764ZM281.749 129.284V130.978H277.731L277.353 133.106C277.81 132.649 278.412 132.42 279.159 132.42C280.102 132.42 280.858 132.714 281.427 133.302C281.996 133.89 282.281 134.665 282.281 135.626C282.281 136.653 281.936 137.497 281.245 138.16C280.554 138.823 279.668 139.154 278.585 139.154C277.558 139.154 276.718 138.893 276.065 138.37C275.421 137.838 275.071 137.082 275.015 136.102H276.975C277.022 136.531 277.19 136.881 277.479 137.152C277.778 137.413 278.146 137.544 278.585 137.544C279.08 137.544 279.486 137.371 279.803 137.026C280.12 136.671 280.279 136.219 280.279 135.668C280.279 135.117 280.125 134.679 279.817 134.352C279.509 134.025 279.094 133.862 278.571 133.862C277.946 133.862 277.456 134.133 277.101 134.674H275.323L276.275 129.284H281.749ZM288.296 134.296V136.074H284.082V134.296H288.296ZM297.077 131.748H295.187C295.001 131.011 294.562 130.642 293.871 130.642C292.779 130.642 292.159 131.613 292.009 133.554C292.551 132.817 293.279 132.448 294.193 132.448C295.089 132.448 295.822 132.751 296.391 133.358C296.97 133.965 297.259 134.739 297.259 135.682C297.269 136.699 296.942 137.535 296.279 138.188C295.626 138.841 294.791 139.168 293.773 139.168C292.616 139.168 291.711 138.743 291.057 137.894C290.404 137.035 290.077 135.841 290.077 134.31C290.077 132.695 290.418 131.431 291.099 130.516C291.781 129.592 292.714 129.13 293.899 129.13C294.786 129.13 295.505 129.359 296.055 129.816C296.615 130.273 296.956 130.917 297.077 131.748ZM293.731 133.932C293.283 133.932 292.915 134.105 292.625 134.45C292.336 134.795 292.191 135.229 292.191 135.752C292.191 136.284 292.336 136.718 292.625 137.054C292.915 137.39 293.288 137.558 293.745 137.558C294.203 137.558 294.581 137.385 294.879 137.04C295.178 136.695 295.327 136.261 295.327 135.738C295.327 135.215 295.178 134.786 294.879 134.45C294.581 134.105 294.198 133.932 293.731 133.932ZM305.431 129.284V130.922C304.348 132.107 303.559 133.33 303.065 134.59C302.579 135.841 302.29 137.311 302.197 139H300.139C300.139 137.824 300.47 136.429 301.133 134.814C301.805 133.19 302.565 131.944 303.415 131.076H298.739V129.284H305.431Z" fill="white"/>
<path d="M135.416 160.032V170H133.218V160.032H135.416ZM138.047 170V160.032H140.273L144.375 166.71V160.032H146.475V170H144.291L140.161 163.308V170H138.047ZM156.152 160.032V161.866H151.308V164.176H155.522V165.912H151.308V170H149.124V160.032H156.152ZM162.631 159.794C164.087 159.794 165.263 160.279 166.159 161.25C167.064 162.211 167.517 163.471 167.517 165.03C167.517 166.589 167.064 167.849 166.159 168.81C165.263 169.762 164.082 170.238 162.617 170.238C161.142 170.238 159.952 169.762 159.047 168.81C158.142 167.849 157.689 166.589 157.689 165.03C157.689 163.453 158.137 162.188 159.033 161.236C159.938 160.275 161.138 159.794 162.631 159.794ZM162.603 161.586C161.782 161.586 161.124 161.894 160.629 162.51C160.144 163.126 159.901 163.952 159.901 164.988C159.901 166.061 160.144 166.901 160.629 167.508C161.114 168.115 161.782 168.423 162.631 168.432C163.462 168.432 164.115 168.124 164.591 167.508C165.067 166.892 165.305 166.052 165.305 164.988C165.305 163.943 165.062 163.117 164.577 162.51C164.092 161.894 163.434 161.586 162.603 161.586ZM178.47 168.18L178.876 168.74C178.148 169.272 177.448 169.655 176.776 169.888C176.104 170.121 175.376 170.238 174.592 170.238C173.033 170.238 171.754 169.776 170.756 168.852C169.701 167.881 169.174 166.649 169.174 165.156C169.174 163.644 169.715 162.375 170.798 161.348C171.88 160.312 173.215 159.794 174.802 159.794C176.192 159.794 177.326 160.186 178.204 160.97C179.09 161.754 179.534 162.762 179.534 163.994C179.534 164.965 179.244 165.823 178.666 166.57C178.087 167.307 177.415 167.676 176.65 167.676C176.286 167.676 175.996 167.587 175.782 167.41C175.567 167.223 175.46 166.971 175.46 166.654C175.46 166.542 175.469 166.449 175.488 166.374C175.04 167.242 174.396 167.676 173.556 167.676C172.986 167.676 172.524 167.48 172.17 167.088C171.824 166.687 171.652 166.169 171.652 165.534C171.652 164.629 171.932 163.84 172.492 163.168C173.061 162.487 173.719 162.146 174.466 162.146C175.231 162.146 175.758 162.463 176.048 163.098L176.244 162.37H177.434L176.524 165.492C176.43 165.828 176.384 166.08 176.384 166.248C176.384 166.621 176.575 166.808 176.958 166.808C177.415 166.808 177.826 166.509 178.19 165.912C178.563 165.315 178.75 164.652 178.75 163.924C178.75 162.916 178.386 162.099 177.658 161.474C176.93 160.839 175.982 160.522 174.816 160.522C173.425 160.522 172.268 160.965 171.344 161.852C170.42 162.739 169.958 163.854 169.958 165.198C169.958 166.467 170.392 167.508 171.26 168.32C172.137 169.123 173.262 169.524 174.634 169.524C175.959 169.524 177.238 169.076 178.47 168.18ZM175.614 163.924C175.614 163.653 175.534 163.434 175.376 163.266C175.226 163.089 175.021 163 174.76 163C174.274 163 173.868 163.303 173.542 163.91C173.215 164.517 173.052 165.081 173.052 165.604C173.052 165.987 173.126 166.285 173.276 166.5C173.434 166.705 173.654 166.808 173.934 166.808C174.26 166.808 174.559 166.621 174.83 166.248C175.11 165.875 175.31 165.473 175.432 165.044C175.553 164.605 175.614 164.232 175.614 163.924ZM188.673 168.124V170H181.617V160.032H183.801V168.124H188.673ZM198.092 160.032V161.824H192.786V163.994H197.658V165.716H192.786V168.166H198.19V170H190.616V160.032H198.092ZM205.35 160.018L209.144 170H206.848L206.064 167.774H202.354L201.542 170H199.302L203.096 160.018H205.35ZM205.532 166.178L204.216 162.468L202.886 166.178H205.532ZM210.692 170V160.032H214.724C216.273 160.032 217.463 160.461 218.294 161.32C219.134 162.179 219.554 163.411 219.554 165.016C219.554 166.621 219.134 167.853 218.294 168.712C217.463 169.571 216.273 170 214.724 170H210.692ZM212.862 168.18H214.458C216.39 168.18 217.356 167.125 217.356 165.016C217.356 163.999 217.113 163.219 216.628 162.678C216.152 162.127 215.428 161.852 214.458 161.852H212.862V168.18ZM225.745 165.296V167.074H221.531V165.296H225.745ZM237.032 164.61V170H235.646L235.436 168.866C234.689 169.781 233.691 170.238 232.44 170.238C231.049 170.238 229.92 169.757 229.052 168.796C228.184 167.835 227.75 166.589 227.75 165.058C227.75 163.518 228.207 162.263 229.122 161.292C230.037 160.312 231.213 159.822 232.65 159.822C233.789 159.822 234.75 160.144 235.534 160.788C236.318 161.423 236.775 162.263 236.906 163.308H234.792C234.689 162.785 234.447 162.379 234.064 162.09C233.681 161.801 233.201 161.656 232.622 161.656C231.791 161.656 231.138 161.959 230.662 162.566C230.186 163.163 229.948 163.994 229.948 165.058C229.948 166.141 230.186 166.985 230.662 167.592C231.147 168.189 231.824 168.488 232.692 168.488C233.373 168.488 233.933 168.283 234.372 167.872C234.811 167.452 235.044 166.906 235.072 166.234H232.846V164.61H237.032ZM239.563 160.032H244.519C245.508 160.032 246.316 160.265 246.941 160.732C247.566 161.199 247.879 161.908 247.879 162.86C247.879 163.439 247.739 163.947 247.459 164.386C247.179 164.815 246.792 165.123 246.297 165.31C247.156 165.487 247.646 166.262 247.767 167.634C247.767 167.681 247.776 167.825 247.795 168.068C247.814 168.311 247.832 168.507 247.851 168.656C247.87 168.796 247.893 168.969 247.921 169.174C247.949 169.379 247.991 169.552 248.047 169.692C248.103 169.832 248.168 169.935 248.243 170H245.975C245.9 169.851 245.844 169.664 245.807 169.44C245.77 169.207 245.737 168.913 245.709 168.558C245.681 168.194 245.667 167.993 245.667 167.956C245.592 167.256 245.415 166.771 245.135 166.5C244.864 166.229 244.379 166.094 243.679 166.094H241.733V170H239.563V160.032ZM241.733 161.754V164.512H243.805C244.412 164.512 244.883 164.419 245.219 164.232C245.564 164.036 245.737 163.658 245.737 163.098C245.737 162.575 245.569 162.221 245.233 162.034C244.906 161.847 244.463 161.754 243.903 161.754H241.733ZM254.79 159.794C256.246 159.794 257.422 160.279 258.318 161.25C259.224 162.211 259.676 163.471 259.676 165.03C259.676 166.589 259.224 167.849 258.318 168.81C257.422 169.762 256.242 170.238 254.776 170.238C253.302 170.238 252.112 169.762 251.206 168.81C250.301 167.849 249.848 166.589 249.848 165.03C249.848 163.453 250.296 162.188 251.192 161.236C252.098 160.275 253.297 159.794 254.79 159.794ZM254.762 161.586C253.941 161.586 253.283 161.894 252.788 162.51C252.303 163.126 252.06 163.952 252.06 164.988C252.06 166.061 252.303 166.901 252.788 167.508C253.274 168.115 253.941 168.423 254.79 168.432C255.621 168.432 256.274 168.124 256.75 167.508C257.226 166.892 257.464 166.052 257.464 164.988C257.464 163.943 257.222 163.117 256.736 162.51C256.251 161.894 255.593 161.586 254.762 161.586ZM270.363 160.032V166.024C270.363 167.452 270.018 168.507 269.327 169.188C268.646 169.86 267.577 170.196 266.121 170.196C264.646 170.196 263.559 169.855 262.859 169.174C262.168 168.483 261.823 167.424 261.823 165.996V160.032H264.007V165.996C264.007 166.808 264.161 167.41 264.469 167.802C264.777 168.194 265.337 168.39 266.149 168.39C266.933 168.39 267.465 168.194 267.745 167.802C268.034 167.41 268.179 166.808 268.179 165.996V160.032H270.363ZM272.97 160.032H277.268C278.388 160.032 279.275 160.303 279.928 160.844C280.591 161.376 280.922 162.174 280.922 163.238C280.922 164.283 280.595 165.077 279.942 165.618C279.289 166.15 278.435 166.416 277.38 166.416H275.14V170H272.97V160.032ZM275.14 161.824V164.694H277.086C278.225 164.694 278.794 164.218 278.794 163.266C278.794 162.305 278.229 161.824 277.1 161.824H275.14ZM283.275 167.816V170H281.063V167.816H283.275ZM285.87 160.032H290.826C291.815 160.032 292.622 160.265 293.248 160.732C293.873 161.199 294.186 161.908 294.186 162.86C294.186 163.439 294.046 163.947 293.766 164.386C293.486 164.815 293.098 165.123 292.604 165.31C293.462 165.487 293.952 166.262 294.074 167.634C294.074 167.681 294.083 167.825 294.102 168.068C294.12 168.311 294.139 168.507 294.158 168.656C294.176 168.796 294.2 168.969 294.228 169.174C294.256 169.379 294.298 169.552 294.354 169.692C294.41 169.832 294.475 169.935 294.55 170H292.282C292.207 169.851 292.151 169.664 292.114 169.44C292.076 169.207 292.044 168.913 292.016 168.558C291.988 168.194 291.974 167.993 291.974 167.956C291.899 167.256 291.722 166.771 291.442 166.5C291.171 166.229 290.686 166.094 289.986 166.094H288.04V170H285.87V160.032ZM288.04 161.754V164.512H290.112C290.718 164.512 291.19 164.419 291.526 164.232C291.871 164.036 292.044 163.658 292.044 163.098C292.044 162.575 291.876 162.221 291.54 162.034C291.213 161.847 290.77 161.754 290.21 161.754H288.04ZM305.073 160.032V166.024C305.073 167.452 304.728 168.507 304.037 169.188C303.356 169.86 302.287 170.196 300.831 170.196C299.356 170.196 298.269 169.855 297.569 169.174C296.878 168.483 296.533 167.424 296.533 165.996V160.032H298.717V165.996C298.717 166.808 298.871 167.41 299.179 167.802C299.487 168.194 300.047 168.39 300.859 168.39C301.643 168.39 302.175 168.194 302.455 167.802C302.744 167.41 302.889 166.808 302.889 165.996V160.032H305.073Z" fill="white"/>
<a href="mailto:info@scf-group.ru">
<rect fill="black" fill-opacity="0" x="0.25235" y="3.035" width="173.745" height="13.93"/>
</a>
</svg>
